<svg width="405" height="497" viewBox="0 0 405 497" fill="none" xmlns="http://www.w3.org/2000/svg">
<path d="M45.8035 449.446V361.893H61.5232V413.574L83.1378 389.132H101.805L76.8745 416.614L105.858 449.446H86.2081L61.5232 419.167V449.446H45.8035Z" fill="black"/>
<path d="M137.833 450.905C131.692 450.905 126.247 449.608 121.499 447.014C116.75 444.42 113.025 440.772 110.323 436.07C107.621 431.368 106.27 425.936 106.27 419.775C106.27 413.533 107.58 407.98 110.2 403.116C112.902 398.252 116.586 394.482 121.253 391.807C126.002 389.051 131.569 387.673 137.955 387.673C143.932 387.673 149.213 388.97 153.798 391.564C158.383 394.158 161.944 397.725 164.482 402.265C167.102 406.723 168.412 411.709 168.412 417.222C168.412 418.113 168.371 419.046 168.29 420.018C168.29 420.991 168.249 422.005 168.167 423.058H121.867C122.195 427.76 123.832 431.449 126.78 434.124C129.809 436.799 133.452 438.137 137.71 438.137C140.903 438.137 143.564 437.448 145.692 436.07C147.903 434.611 149.541 432.746 150.605 430.476H166.57C165.424 434.286 163.5 437.772 160.798 440.934C158.178 444.014 154.903 446.446 150.973 448.23C147.125 450.013 142.745 450.905 137.833 450.905ZM137.955 400.319C134.107 400.319 130.71 401.413 127.762 403.602C124.815 405.71 122.932 408.953 122.113 413.33H152.447C152.201 409.358 150.728 406.196 148.026 403.846C145.324 401.495 141.967 400.319 137.955 400.319Z" fill="black"/>
<path d="M205.336 450.905C199.605 450.905 194.488 449.527 189.985 446.771C185.482 444.014 181.92 440.245 179.3 435.462C176.68 430.679 175.37 425.247 175.37 419.167C175.37 413.087 176.68 407.696 179.3 402.994C181.92 398.211 185.482 394.482 189.985 391.807C194.488 389.051 199.605 387.673 205.336 387.673C209.921 387.673 213.933 388.524 217.371 390.226C220.81 391.929 223.594 394.32 225.723 397.401V361.893H241.442V449.446H227.442L225.723 440.812C223.758 443.487 221.138 445.838 217.863 447.865C214.67 449.892 210.494 450.905 205.336 450.905ZM208.652 437.286C213.728 437.286 217.863 435.624 221.056 432.3C224.331 428.895 225.968 424.558 225.968 419.289C225.968 414.019 224.331 409.723 221.056 406.399C217.863 402.994 213.728 401.292 208.652 401.292C203.658 401.292 199.523 402.954 196.248 406.278C192.973 409.601 191.336 413.898 191.336 419.167C191.336 424.437 192.973 428.774 196.248 432.179C199.523 435.583 203.658 437.286 208.652 437.286Z" fill="black"/>
<path d="M254.994 449.446V389.132H268.994L270.468 400.441C272.678 396.549 275.667 393.469 279.433 391.199C283.281 388.848 287.784 387.673 292.942 387.673V404.089H288.521C285.082 404.089 282.012 404.616 279.31 405.67C276.608 406.723 274.48 408.547 272.924 411.142C271.45 413.736 270.713 417.343 270.713 421.964V449.446H254.994Z" fill="black"/>
<path d="M328.003 450.905C322.108 450.905 316.786 449.567 312.037 446.892C307.37 444.217 303.645 440.528 300.861 435.827C298.16 431.044 296.809 425.531 296.809 419.289C296.809 413.047 298.201 407.575 300.984 402.873C303.768 398.09 307.493 394.361 312.16 391.685C316.909 389.01 322.23 387.673 328.125 387.673C333.938 387.673 339.178 389.01 343.845 391.685C348.594 394.361 352.319 398.09 355.021 402.873C357.805 407.575 359.196 413.047 359.196 419.289C359.196 425.531 357.805 431.044 355.021 435.827C352.319 440.528 348.594 444.217 343.845 446.892C339.096 449.567 333.816 450.905 328.003 450.905ZM328.003 437.407C332.096 437.407 335.658 435.908 338.687 432.908C341.716 429.828 343.231 425.288 343.231 419.289C343.231 413.29 341.716 408.791 338.687 405.791C335.658 402.711 332.137 401.17 328.125 401.17C323.95 401.17 320.347 402.711 317.318 405.791C314.371 408.791 312.897 413.29 312.897 419.289C312.897 425.288 314.371 429.828 317.318 432.908C320.347 435.908 323.909 437.407 328.003 437.407Z" fill="black"/>
<path d="M202.5 45.8398L337.5 180.947L202.5 316.053L67.5 180.947L202.5 45.8398Z" fill="#FFC900"/>
</svg>
