<svg width="470" height="162" viewBox="0 0 470 162" fill="none" xmlns="http://www.w3.org/2000/svg">
<path d="M163.325 119.604V41.0869H177.352V87.434L196.64 65.5146H213.297L191.051 90.1603L216.913 119.604H199.379L177.352 92.4504V119.604H163.325Z" fill="black"/>
<path d="M245.445 120.913C239.966 120.913 235.108 119.75 230.87 117.423C226.633 115.097 223.309 111.825 220.898 107.609C218.487 103.392 217.281 98.521 217.281 92.9957C217.281 87.3977 218.45 82.4176 220.788 78.0556C223.199 73.6935 226.487 70.3129 230.651 67.9137C234.888 65.4419 239.856 64.2059 245.555 64.2059C250.888 64.2059 255.6 65.3692 259.692 67.6956C263.783 70.0221 266.961 73.2209 269.226 77.2922C271.564 81.2908 272.733 85.7619 272.733 90.7056C272.733 91.5053 272.696 92.3414 272.623 93.2138C272.623 94.0862 272.586 94.995 272.513 95.9401H231.199C231.491 100.157 232.952 103.465 235.582 105.864C238.286 108.263 241.537 109.463 245.336 109.463C248.185 109.463 250.559 108.845 252.459 107.609C254.431 106.3 255.893 104.628 256.842 102.592H271.089C270.066 106.009 268.349 109.135 265.938 111.971C263.6 114.733 260.678 116.914 257.171 118.514C253.737 120.113 249.829 120.913 245.445 120.913ZM245.555 75.5474C242.121 75.5474 239.089 76.5288 236.459 78.4918C233.829 80.382 232.149 83.29 231.418 87.2159H258.486C258.267 83.6536 256.952 80.8182 254.541 78.7099C252.13 76.6015 249.135 75.5474 245.555 75.5474Z" fill="black"/>
<path d="M305.681 120.913C300.567 120.913 296.001 119.677 291.982 117.205C287.964 114.733 284.786 111.353 282.448 107.063C280.11 102.774 278.941 97.903 278.941 92.4504C278.941 86.9978 280.11 82.1632 282.448 77.9465C284.786 73.6571 287.964 70.3129 291.982 67.9137C296.001 65.4419 300.567 64.2059 305.681 64.2059C309.772 64.2059 313.352 64.9693 316.42 66.496C319.489 68.0228 321.973 70.1675 323.872 72.9301V41.0869H337.899V119.604H325.406L323.872 111.862C322.119 114.261 319.781 116.369 316.859 118.187C314.009 120.004 310.283 120.913 305.681 120.913ZM308.64 108.699C313.169 108.699 316.859 107.209 319.708 104.228C322.63 101.175 324.091 97.2851 324.091 92.5595C324.091 87.8339 322.63 83.9807 319.708 81C316.859 77.9465 313.169 76.4198 308.64 76.4198C304.183 76.4198 300.494 77.9101 297.571 80.8909C294.649 83.8717 293.188 87.7248 293.188 92.4504C293.188 97.176 294.649 101.066 297.571 104.119C300.494 107.172 304.183 108.699 308.64 108.699Z" fill="black"/>
<path d="M349.992 119.604V65.5146H362.485L363.8 75.6564C365.772 72.1667 368.439 69.4041 371.8 67.3685C375.233 65.2601 379.252 64.2059 383.854 64.2059V78.928H379.909C376.841 78.928 374.101 79.4005 371.69 80.3456C369.279 81.2908 367.38 82.9265 365.992 85.253C364.676 87.5794 364.019 90.8146 364.019 94.9586V119.604H349.992Z" fill="black"/>
<path d="M415.14 120.913C409.88 120.913 405.131 119.713 400.893 117.314C396.729 114.915 393.405 111.607 390.921 107.391C388.51 103.101 387.305 98.1575 387.305 92.5595C387.305 86.9615 388.547 82.0541 391.031 77.8374C393.515 73.5481 396.839 70.2038 401.003 67.8047C405.24 65.4055 409.989 64.2059 415.249 64.2059C420.436 64.2059 425.112 65.4055 429.277 67.8047C433.514 70.2038 436.838 73.5481 439.249 77.8374C441.733 82.0541 442.975 86.9615 442.975 92.5595C442.975 98.1575 441.733 103.101 439.249 107.391C436.838 111.607 433.514 114.915 429.277 117.314C425.039 119.713 420.327 120.913 415.14 120.913ZM415.14 108.808C418.793 108.808 421.971 107.463 424.674 104.773C427.377 102.011 428.729 97.9394 428.729 92.5595C428.729 87.1796 427.377 83.1446 424.674 80.4547C421.971 77.692 418.829 76.3107 415.249 76.3107C411.523 76.3107 408.309 77.692 405.606 80.4547C402.976 83.1446 401.661 87.1796 401.661 92.5595C401.661 97.9394 402.976 102.011 405.606 104.773C408.309 107.463 411.487 108.808 415.14 108.808Z" fill="black"/>
<path d="M82.25 27L136.3 81L82.25 135L28.2 81L82.25 27Z" fill="#FFC900"/>
</svg>
