<svg enable-background="new 0 0 405 685" viewBox="0 0 405 685" xmlns="http://www.w3.org/2000/svg" xmlns:xlink="http://www.w3.org/1999/xlink"><linearGradient id="a" gradientTransform="matrix(1 0 0 -1 0 684.1102)" gradientUnits="userSpaceOnUse" x1="202.5" x2="202.5" y1="604.7902" y2="420.7002"><stop offset=".009485403" stop-color="#e6e6e6"/><stop offset="1" stop-color="#f2f2f2" stop-opacity="0"/></linearGradient><linearGradient id="b" gradientTransform="matrix(1 0 0 -1 0 684.1102)" gradientUnits="userSpaceOnUse" x1="202.5" x2="202.5" y1="570.8303" y2="392.3902"><stop offset=".003926363" stop-color="#e6e6e6"/><stop offset=".9951" stop-color="#fff" stop-opacity="0"/></linearGradient><linearGradient id="c" gradientTransform="matrix(1 0 0 -1 0 684.1102)" gradientUnits="userSpaceOnUse" x1="202.5" x2="202.5" y1="536.7402" y2="352.6502"><stop offset=".006472815" stop-color="#e6e6e6"/><stop offset="1" stop-color="#f2f2f2" stop-opacity=".8"/></linearGradient><path d="m0 0h405v405h-405z" fill="none"/><path d="m202.5 263.41-92.05-92.04 92.05-92.05 92.05 92.05z" fill="url(#a)"/><path d="m113.28 202.5 89.22-89.22 89.22 89.22-89.22 89.22z" fill="url(#b)" stroke="#faba0d" stroke-miterlimit="10" stroke-width="5"/><path d="m202.5 331.46-92.05-92.05 92.05-92.04 92.05 92.04z" fill="url(#c)"/><path d="m163.88 404.89v13.13l14.11-13.13h3.13l-10.85 10.09 11.36 14.33h-2.99l-10.1-12.72-4.66 4.34v8.38h-2.31v-24.42z"/><path d="m183.8 423.47c.21.83.56 1.58 1.04 2.24s1.08 1.21 1.8 1.64c.73.43 1.6.65 2.62.65 1.56 0 2.79-.41 3.67-1.23s1.5-1.92 1.84-3.28h2.14c-.45 2.01-1.29 3.56-2.5 4.65s-2.93 1.64-5.15 1.64c-1.38 0-2.58-.25-3.59-.74s-1.83-1.16-2.46-2.02c-.63-.85-1.11-1.85-1.41-2.98-.31-1.13-.46-2.32-.46-3.57 0-1.16.15-2.3.46-3.42s.78-2.11 1.41-2.99 1.46-1.58 2.46-2.12c1.01-.54 2.2-.8 3.59-.8 1.41 0 2.61.29 3.6.85 1 .57 1.81 1.32 2.43 2.24s1.07 1.98 1.34 3.18.38 2.41.34 3.64h-13.5c0 .79.11 1.59.33 2.42zm10.6-6.58c-.26-.75-.63-1.42-1.1-2-.48-.58-1.05-1.05-1.73-1.4s-1.45-.53-2.31-.53c-.88 0-1.67.18-2.35.53s-1.26.82-1.73 1.4c-.48.58-.86 1.25-1.14 2.02-.28.76-.47 1.54-.56 2.34h11.36c-.03-.82-.18-1.61-.44-2.36z"/><path d="m213.23 429.3v-3.35h-.07c-.23.57-.56 1.09-1 1.57s-.95.88-1.51 1.21-1.17.59-1.82.77-1.29.27-1.92.27c-1.34 0-2.5-.25-3.48-.74-.99-.49-1.81-1.16-2.47-2.02-.66-.85-1.15-1.85-1.46-2.98s-.48-2.32-.48-3.57.16-2.45.48-3.57c.32-1.13.8-2.12 1.46-2.98.66-.85 1.48-1.53 2.47-2.04.99-.5 2.15-.75 3.48-.75.66 0 1.3.08 1.92.24s1.21.4 1.75.74 1.03.74 1.45 1.21c.42.48.74 1.04.97 1.68h.07v-10.12h2.14v24.42h-1.98zm-11.75-6.1c.21.9.56 1.71 1.02 2.41.46.71 1.06 1.28 1.78 1.73.73.44 1.6.67 2.62.67 1.13 0 2.09-.22 2.87-.67s1.42-1.02 1.9-1.73.84-1.51 1.05-2.41c.22-.9.32-1.81.32-2.72s-.11-1.82-.32-2.72c-.22-.9-.57-1.7-1.05-2.41s-1.12-1.28-1.9-1.73-1.74-.67-2.87-.67c-1.02 0-1.89.22-2.62.67-.73.44-1.32 1.02-1.78 1.73s-.81 1.51-1.02 2.41c-.22.9-.32 1.81-.32 2.72s.11 1.82.32 2.72z"/><path d="m220.97 411.66v4.14h.07c.54-1.44 1.39-2.54 2.53-3.32 1.14-.77 2.51-1.13 4.1-1.06v2.15c-.97-.05-1.86.08-2.65.39s-1.48.75-2.06 1.32-1.03 1.25-1.34 2.04c-.32.79-.48 1.65-.48 2.58v9.4h-2.14v-17.65h1.97z"/><path d="m239.98 411.9c1.03.5 1.9 1.17 2.6 2.02.7.84 1.23 1.83 1.6 2.96.36 1.13.54 2.33.54 3.61s-.18 2.48-.54 3.61-.9 2.12-1.6 2.96-1.57 1.51-2.6 2-2.22.74-3.55.74c-1.34 0-2.52-.25-3.55-.74s-1.9-1.16-2.6-2-1.24-1.83-1.6-2.96-.54-2.33-.54-3.61.18-2.48.54-3.61.89-2.11 1.6-2.96c.7-.84 1.57-1.52 2.6-2.02s2.21-.75 3.55-.75c1.33 0 2.52.25 3.55.75zm-6.24 1.71c-.77.43-1.41 1-1.92 1.71s-.9 1.51-1.16 2.41-.39 1.82-.39 2.75.13 1.85.39 2.75.65 1.7 1.16 2.41 1.15 1.28 1.92 1.71 1.67.65 2.69.65 1.92-.22 2.69-.65 1.41-1 1.92-1.71.9-1.51 1.16-2.41.39-1.82.39-2.75-.13-1.85-.39-2.75-.65-1.7-1.16-2.41-1.15-1.28-1.92-1.71-1.67-.65-2.69-.65-1.92.21-2.69.65z"/></svg>
