<svg width="385" height="385" viewBox="0 0 385 385" fill="none" xmlns="http://www.w3.org/2000/svg">
<path d="M191.732 256.454L89 153.732L191.732 51L294.465 153.732L191.732 256.454Z" fill="url(#paint0_linear_1_17)"/>
<path d="M91.3694 187.686L90.5803 188.475L91.3694 189.264L190.943 288.838L191.732 289.627L192.521 288.838L292.095 189.264L292.884 188.475L292.095 187.686L192.521 88.112L191.732 87.3229L190.943 88.112L91.3694 187.686Z" fill="url(#paint1_linear_1_17)" stroke="#FFBC00" stroke-width="2"/>
<path d="M191.732 332.401L89 229.668L191.732 126.947L294.465 229.668L191.732 332.401Z" fill="url(#paint2_linear_1_17)"/>
<defs>
<linearGradient id="paint0_linear_1_17" x1="89.6384" y1="52.2804" x2="89.6384" y2="256.458" gradientUnits="userSpaceOnUse">
<stop stop-color="#333333" stop-opacity="0.7"/>
<stop offset="1" stop-opacity="0.01"/>
</linearGradient>
<linearGradient id="paint1_linear_1_17" x1="92.1629" y1="88.9044" x2="92.1629" y2="288.046" gradientUnits="userSpaceOnUse">
<stop offset="0.00620325" stop-color="#333333" stop-opacity="0.6"/>
<stop offset="1" stop-opacity="0.8"/>
</linearGradient>
<linearGradient id="paint2_linear_1_17" x1="89.6361" y1="128.217" x2="89.6361" y2="332.398" gradientUnits="userSpaceOnUse">
<stop stop-color="#333333" stop-opacity="0.6"/>
<stop offset="1"/>
</linearGradient>
</defs>
</svg>
