<svg width="300" height="300" viewBox="0 0 300 300" fill="none" xmlns="http://www.w3.org/2000/svg">
<path d="M149.732 218.454L47 115.732L149.732 13L252.465 115.732L149.732 218.454Z" fill="url(#paint0_linear_2_21)"/>
<path d="M49.3694 149.686L48.5803 150.475L49.3694 151.264L148.943 250.838L149.732 251.627L150.521 250.838L250.095 151.264L250.884 150.475L250.095 149.686L150.521 50.112L149.732 49.3229L148.943 50.112L49.3694 149.686Z" fill="url(#paint1_linear_2_21)" stroke="#FFBC00" stroke-width="2"/>
<path d="M149.732 294.401L47 191.668L149.732 88.9471L252.465 191.668L149.732 294.401Z" fill="url(#paint2_linear_2_21)"/>
<defs>
<linearGradient id="paint0_linear_2_21" x1="47.6384" y1="14.2804" x2="47.6384" y2="218.458" gradientUnits="userSpaceOnUse">
<stop stop-color="#333333" stop-opacity="0.7"/>
<stop offset="1" stop-opacity="0.01"/>
</linearGradient>
<linearGradient id="paint1_linear_2_21" x1="50.1629" y1="50.9044" x2="50.1629" y2="250.046" gradientUnits="userSpaceOnUse">
<stop offset="0.00620325" stop-color="#333333" stop-opacity="0.6"/>
<stop offset="1" stop-opacity="0.8"/>
</linearGradient>
<linearGradient id="paint2_linear_2_21" x1="47.6361" y1="90.2172" x2="47.6361" y2="294.398" gradientUnits="userSpaceOnUse">
<stop stop-color="#333333" stop-opacity="0.6"/>
<stop offset="1"/>
</linearGradient>
</defs>
</svg>
