<svg xmlns="http://www.w3.org/2000/svg" xmlns:xlink="http://www.w3.org/1999/xlink" viewBox="0 0 200 220"><defs><linearGradient id="b" x1="99.7" x2="99.7" y1="30" y2="160" gradientTransform="rotate(45 99.7 95)" gradientUnits="userSpaceOnUse"><stop offset="0" stop-color="#333"/><stop offset="1" stop-color="#1a1a1a"/></linearGradient><linearGradient id="a" x1="99.7" x2="99.7" y1="50" y2="170" gradientTransform="rotate(45 99.7 110)" gradientUnits="userSpaceOnUse"><stop offset="0" stop-color="#333"/><stop offset="1"/></linearGradient><linearGradient id="c" x1="99.7" x2="99.7" y1="70" y2="190" gradientTransform="rotate(45 99.7 130)" xlink:href="#a"/></defs><path d="M34.7 95l65-65 65 65-65 65z"/><path d="M39.7 110l60-60 60 60-60 60z"/><path d="M39.7 130l60-60 60 60-60 60z"/><path fill="url(#b)" fill-opacity=".4" d="M53.8 49h91.9v91.9H53.8z" transform="rotate(-45 99.7 95)"/><path fill="url(#a)" fill-opacity=".4" stroke="#ffbc00" stroke-miterlimit="10" stroke-width="3" d="M57.3 67.6h84.8v84.8H57.3z" transform="rotate(-45 99.7 110)"/><path fill="url(#c)" fill-opacity=".8" d="M57.3 87.6h84.8v84.8H57.3z" transform="rotate(-45 99.7 130)"/></svg>
