<svg xmlns="http://www.w3.org/2000/svg" width="124" height="32" viewBox="0 0 124 32" fill="none">
  <path d="M40.1191 27.5487V4.05957H44.295V17.9247L50.0368 11.3673H54.9956L48.373 18.7403L56.0722 27.5487H50.8524L44.295 19.4254V27.5487H40.1191Z" fill="black"/>
  <path d="M64.5661 27.9402C62.9349 27.9402 61.4886 27.5922 60.2271 26.8962C58.9657 26.2002 57.9761 25.2215 57.2583 23.9601C56.5406 22.6986 56.1818 21.2414 56.1818 19.5885C56.1818 17.9138 56.5297 16.424 57.2257 15.119C57.9434 13.8141 58.9222 12.8027 60.1619 12.085C61.4233 11.3455 62.9023 10.9758 64.5987 10.9758C66.1864 10.9758 67.5892 11.3238 68.8072 12.0198C70.0251 12.7157 70.9712 13.6727 71.6454 14.8907C72.3414 16.0869 72.6894 17.4244 72.6894 18.9034C72.6894 19.1426 72.6785 19.3927 72.6568 19.6537C72.6568 19.9147 72.6459 20.1866 72.6241 20.4693H60.325C60.412 21.7308 60.847 22.7204 61.6299 23.4381C62.4346 24.1558 63.4025 24.5147 64.5334 24.5147C65.3817 24.5147 66.0885 24.3298 66.654 23.9601C67.2412 23.5686 67.6762 23.0684 67.9589 22.4594H72.2C71.8955 23.4816 71.3844 24.4168 70.6667 25.265C69.9707 26.0915 69.1008 26.744 68.0568 27.2224C67.0346 27.7009 65.871 27.9402 64.5661 27.9402ZM64.5987 14.3687C63.5765 14.3687 62.6739 14.6623 61.8909 15.2495C61.1079 15.815 60.6077 16.685 60.3902 17.8594H68.4483C68.383 16.7937 67.9916 15.9455 67.2738 15.3148C66.5561 14.684 65.6644 14.3687 64.5987 14.3687Z" fill="black"/>
  <path d="M82.4979 27.9402C80.9755 27.9402 79.6162 27.5704 78.4199 26.831C77.2237 26.0915 76.2777 25.0801 75.5817 23.7969C74.8857 22.5137 74.5377 21.0566 74.5377 19.4254C74.5377 17.7942 74.8857 16.3479 75.5817 15.0864C76.2777 13.8032 77.2237 12.8027 78.4199 12.085C79.6162 11.3455 80.9755 10.9758 82.4979 10.9758C83.7159 10.9758 84.7816 11.2042 85.695 11.6609C86.6085 12.1176 87.348 12.7592 87.9135 13.5857V4.05957H92.0893V27.5487H88.3702L87.9135 25.2324C87.3915 25.9501 86.6955 26.5808 85.8255 27.1246C84.9773 27.6683 83.8681 27.9402 82.4979 27.9402ZM83.3788 24.2863C84.7272 24.2863 85.8255 23.8404 86.6738 22.9487C87.5437 22.0353 87.9787 20.8717 87.9787 19.458C87.9787 18.0443 87.5437 16.8916 86.6738 15.9999C85.8255 15.0864 84.7272 14.6297 83.3788 14.6297C82.0521 14.6297 80.9537 15.0755 80.0838 15.9672C79.2138 16.859 78.7788 18.0117 78.7788 19.4254C78.7788 20.8391 79.2138 22.0026 80.0838 22.9161C80.9537 23.8296 82.0521 24.2863 83.3788 24.2863Z" fill="black"/>
  <path d="M95.6891 27.5487V11.3673H99.4082L99.7997 14.4013C100.387 13.3573 101.181 12.5309 102.181 11.9219C103.203 11.2912 104.4 10.9758 105.77 10.9758V15.38H104.595C103.682 15.38 102.866 15.5214 102.149 15.8041C101.431 16.0869 100.865 16.5762 100.452 17.2722C100.061 17.9682 99.865 18.936 99.865 20.1757V27.5487H95.6891Z" fill="black"/>
  <path d="M115.083 27.9402C113.518 27.9402 112.104 27.5813 110.842 26.8636C109.603 26.1459 108.613 25.1563 107.874 23.8948C107.156 22.6116 106.797 21.1327 106.797 19.458C106.797 17.7833 107.167 16.3152 107.906 15.0538C108.646 13.7706 109.635 12.7701 110.875 12.0524C112.136 11.3347 113.55 10.9758 115.116 10.9758C116.66 10.9758 118.052 11.3347 119.292 12.0524C120.553 12.7701 121.543 13.7706 122.261 15.0538C123 16.3152 123.37 17.7833 123.37 19.458C123.37 21.1327 123 22.6116 122.261 23.8948C121.543 25.1563 120.553 26.1459 119.292 26.8636C118.03 27.5813 116.628 27.9402 115.083 27.9402ZM115.083 24.3189C116.171 24.3189 117.117 23.9166 117.922 23.1118C118.726 22.2854 119.129 21.0674 119.129 19.458C119.129 17.8485 118.726 16.6415 117.922 15.8367C117.117 15.0103 116.182 14.597 115.116 14.597C114.007 14.597 113.05 15.0103 112.245 15.8367C111.462 16.6415 111.071 17.8485 111.071 19.458C111.071 21.0674 111.462 22.2854 112.245 23.1118C113.05 23.9166 113.996 24.3189 115.083 24.3189Z" fill="black"/>
  <path d="M16 0L32 16L16 32L0 16L16 0Z" fill="black"/>
</svg>
