<svg viewBox="0 0 405 685" xmlns="http://www.w3.org/2000/svg" xmlns:xlink="http://www.w3.org/1999/xlink"><linearGradient id="a" gradientTransform="matrix(.70710678 .70710678 -.70710678 .70710678 178.61 -93.91)" gradientUnits="userSpaceOnUse" x1="202.66" x2="202.66" y1="76.6" y2="260.69"><stop offset=".01" stop-color="#333" stop-opacity=".7"/><stop offset="1" stop-opacity="0"/></linearGradient><linearGradient id="b" gradientTransform="matrix(.70710678 .70710678 -.70710678 .70710678 200.62 -84.79)" gradientUnits="userSpaceOnUse" x1="202.66" x2="202.66" y1="110.56" y2="289"><stop offset=".01" stop-color="#333" stop-opacity=".6"/><stop offset="1" stop-opacity=".8"/></linearGradient><linearGradient id="c" gradientTransform="matrix(.70710678 .70710678 -.70710678 .70710678 226.72 -73.98)" gradientUnits="userSpaceOnUse" x1="202.66" x2="202.66" y1="144.65" y2="328.74"><stop offset=".01" stop-color="#333" stop-opacity=".6"/><stop offset="1"/></linearGradient><path d="m0 0h405v405h-405z" fill="none"/><g fill="#fff"><path d="m163.88 404.89v13.11l14.12-13.11h3.13l-10.86 10.11 11.36 14.32h-3l-10.1-12.72-4.66 4.35v8.37h-2.31v-24.43z"/><path d="m183.8 423.47a6.56 6.56 0 0 0 1 2.24 6.05 6.05 0 0 0 1.8 1.65 5.06 5.06 0 0 0 2.62.64 5.17 5.17 0 0 0 3.67-1.23 6.43 6.43 0 0 0 1.84-3.28h2.14a8.52 8.52 0 0 1 -2.5 4.65 7.39 7.39 0 0 1 -5.15 1.64 8.08 8.08 0 0 1 -3.58-.73 6.63 6.63 0 0 1 -2.47-2 8.93 8.93 0 0 1 -1.41-3 13.33 13.33 0 0 1 -.46-3.57 12.76 12.76 0 0 1 .46-3.42 9.47 9.47 0 0 1 1.41-3 7 7 0 0 1 2.47-2.12 7.45 7.45 0 0 1 3.58-.8 7.17 7.17 0 0 1 3.61.85 7.36 7.36 0 0 1 2.43 2.24 9.28 9.28 0 0 1 1.34 3.18 13.92 13.92 0 0 1 .34 3.64h-13.5a9.37 9.37 0 0 0 .36 2.42zm10.6-6.58a6.58 6.58 0 0 0 -1.1-2 5.52 5.52 0 0 0 -1.74-1.4 4.86 4.86 0 0 0 -2.31-.53 4.92 4.92 0 0 0 -2.34.53 5.52 5.52 0 0 0 -1.74 1.4 7.21 7.21 0 0 0 -1.14 2 10 10 0 0 0 -.56 2.34h11.36a7.76 7.76 0 0 0 -.43-2.34z"/><path d="m213.23 429.3v-3.3h-.07a5.21 5.21 0 0 1 -1 1.58 6.81 6.81 0 0 1 -1.51 1.21 7.9 7.9 0 0 1 -1.82.77 7.17 7.17 0 0 1 -1.92.27 7.77 7.77 0 0 1 -3.49-.73 6.93 6.93 0 0 1 -2.46-2 8.66 8.66 0 0 1 -1.47-3 13.79 13.79 0 0 1 0-7.14 8.75 8.75 0 0 1 1.47-3 7.06 7.06 0 0 1 2.46-2 7.64 7.64 0 0 1 3.49-.75 8.27 8.27 0 0 1 1.92.23 6.58 6.58 0 0 1 1.75.74 6.43 6.43 0 0 1 1.44 1.21 5.17 5.17 0 0 1 1 1.68h.07v-10.18h2.14v24.41zm-11.75-6.1a7.79 7.79 0 0 0 1 2.41 5.69 5.69 0 0 0 1.79 1.73 5 5 0 0 0 2.62.66 5.77 5.77 0 0 0 2.87-.66 5.66 5.66 0 0 0 1.9-1.73 7.2 7.2 0 0 0 1.06-2.41 11.72 11.72 0 0 0 0-5.44 7.2 7.2 0 0 0 -1.06-2.41 5.66 5.66 0 0 0 -1.9-1.73 5.77 5.77 0 0 0 -2.87-.66 5 5 0 0 0 -2.62.66 5.69 5.69 0 0 0 -1.79 1.73 7.79 7.79 0 0 0 -1 2.41 11.72 11.72 0 0 0 0 5.44z"/><path d="m221 411.66v4.14a6.73 6.73 0 0 1 2.53-3.32 6.57 6.57 0 0 1 4.1-1.06v2.15a6.46 6.46 0 0 0 -2.65.4 5.81 5.81 0 0 0 -3.4 3.35 6.74 6.74 0 0 0 -.48 2.58v9.4h-2.1v-17.64z"/><path d="m240 411.9a7.64 7.64 0 0 1 2.6 2 8.67 8.67 0 0 1 1.6 2.95 12.34 12.34 0 0 1 0 7.22 8.81 8.81 0 0 1 -1.6 3 7.58 7.58 0 0 1 -2.6 2 9 9 0 0 1 -7.1 0 7.62 7.62 0 0 1 -2.61-2 8.79 8.79 0 0 1 -1.59-3 12.12 12.12 0 0 1 0-7.22 8.65 8.65 0 0 1 1.59-2.95 7.67 7.67 0 0 1 2.61-2 8.78 8.78 0 0 1 7.1 0zm-6.24 1.71a5.84 5.84 0 0 0 -1.92 1.71 7.47 7.47 0 0 0 -1.15 2.41 9.65 9.65 0 0 0 0 5.5 7.47 7.47 0 0 0 1.15 2.41 6 6 0 0 0 1.92 1.72 6 6 0 0 0 5.37 0 6 6 0 0 0 1.92-1.72 7.7 7.7 0 0 0 1.16-2.41 9.89 9.89 0 0 0 0-5.5 7.7 7.7 0 0 0 -1.16-2.41 5.84 5.84 0 0 0 -1.92-1.71 5.87 5.87 0 0 0 -5.37 0z"/></g><path d="m137.57 103.56h130.17v130.17h-130.17z" fill="url(#a)" transform="matrix(.70710678 -.70710678 .70710678 .70710678 -59.89 192.7)"/><path d="m139.57 136.69h126.17v126.17h-126.17z" fill="url(#b)" transform="matrix(.70710678 -.70710678 .70710678 .70710678 -81.91 201.82)"/><path d="m202.66 113.39 86.39 86.39-86.39 86.39-86.39-86.39zm0-5.66-92 92.05 92 92 92-92-92-92z" fill="#ffbc00"/><path d="m137.57 171.6h130.17v130.17h-130.17z" fill="url(#c)" transform="matrix(.70710678 -.70710678 .70710678 .70710678 -108.01 212.63)"/></svg>
